<svg id="excel_icon" data-name="excel icon" xmlns="http://www.w3.org/2000/svg" width="28" height="30" viewBox="0 0 28 30">
  <g id="Shape">
    <path id="Path_159" data-name="Path 159" d="M0,0V28.75H19.728L18.62,27.5H1.3V1.25H13.674V9.365H22.14v7.51h1.3V8.5l-.167-.16a.621.621,0,0,0-.078-.076L14.586,0ZM14.977,2.125l6.241,6H14.977Zm-8.371,8.5,3.43,5.625L6.292,21.875H9.428l2.039-3.63a5.849,5.849,0,0,0,.273-.79h.02a3.107,3.107,0,0,0,.235.752l2.037,3.669H17.15l-3.607-5.682,3.509-5.569h-2.94l-1.862,3.33c-.179.435-.306.779-.373,1h-.019a5.566,5.566,0,0,0-.354-.959L9.82,10.625Zm13.58,7.5V23.75H16.93L22.463,30,28,23.75H24.744V18.125Zm1.3,1.25h1.953V25h1.693l-2.672,3.125L19.8,25h1.693Z" fill="#666"/>
  </g>
</svg>
