<?xml version="1.0" standalone="no"?>
<!DOCTYPE svg PUBLIC "-//W3C//DTD SVG 20010904//EN"
 "http://www.w3.org/TR/2001/REC-SVG-20010904/DTD/svg10.dtd">
<svg version="1.0" xmlns="http://www.w3.org/2000/svg"
 width="32.000000pt" height="32.000000pt" viewBox="0 0 32.000000 32.000000"
 preserveAspectRatio="xMidYMid meet">

<g transform="translate(0.000000,32.000000) scale(0.100000,-0.100000)"
fill="#000000" stroke="none">
<path d="M0 160 c0 -136 2 -160 15 -160 13 0 15 23 15 148 0 102 4 152 12 160
9 9 6 12 -15 12 l-27 0 0 -160z"/>
<path d="M200 270 l0 -50 45 0 45 0 0 -110 c0 -91 3 -110 15 -110 13 0 15 24
15 160 l0 160 -60 0 -60 0 0 -50z m55 10 c18 -19 17 -20 -3 -20 -15 0 -22 6
-22 20 0 11 2 20 3 20 2 0 12 -9 22 -20z"/>
<path d="M110 175 c0 -4 7 -19 15 -36 14 -27 14 -32 0 -51 -8 -13 -15 -26 -15
-30 0 -15 29 -8 40 10 10 16 10 16 20 0 11 -18 40 -25 40 -10 0 4 -7 17 -15
30 -14 19 -14 24 0 51 19 37 19 41 0 41 -7 0 -19 -8 -25 -17 -10 -17 -10 -17
-20 0 -10 15 -40 25 -40 12z"/>
</g>
</svg>
